<svg version="1.1" viewBox="0.0 0.0 960.0 540.0" fill="none" stroke="none" stroke-linecap="square" stroke-miterlimit="10" xmlns:xlink="http://www.w3.org/1999/xlink" xmlns="http://www.w3.org/2000/svg"><clipPath id="g3e727f517d3_0_0.0"><path d="m0 0l960.0 0l0 540.0l-960.0 0l0 -540.0z" clip-rule="nonzero"/></clipPath><g clip-path="url(#g3e727f517d3_0_0.0)"><path fill="#1e3a5f" d="m0 0l960.0 0l0 540.0l-960.0 0z" fill-rule="evenodd"/><path fill="#000000" fill-opacity="0.0" d="m17.76728 218.34645l894.5512 0l0 215.49608l-894.5512 0z" fill-rule="evenodd"/><path fill="#b91c1c" d="m305.7399 373.64252l0 -194.0l127.59375 0l0 32.9375l-87.875 0l0 54.171875l79.28125 0l0 32.421875l-79.28125 0l0 74.46875l-39.71875 0z" fill-rule="nonzero"/><path fill="#ffffff" d="m547.0098 376.2519q-25.78125 0 -46.15625 -11.71875q-20.375 -11.71875 -32.171875 -33.984375q-11.78125 -22.265625 -11.78125 -53.78125q0 -31.640625 11.84375 -53.96875q11.859375 -22.328125 32.296875 -34.046875q20.4375 -11.71875 45.96875 -11.71875q16.53125 0 30.78125 4.625q14.265625 4.625 25.328125 13.484375q11.078125 8.84375 18.109375 21.671875q7.03125 12.828125 9.234375 29.234375l-40.234375 0q-1.296875 -8.078125 -5.015625 -14.265625q-3.703125 -6.1875 -9.234375 -10.546875q-5.53125 -4.359375 -12.703125 -6.640625q-7.15625 -2.28125 -15.484375 -2.28125q-15.109375 0 -26.5 7.5625q-11.390625 7.546875 -17.703125 21.9375q-6.3125 14.390625 -6.3125 34.953125q0 20.96875 6.375 35.296875q6.375 14.3125 17.703125 21.609375q11.328125 7.28125 26.296875 7.28125q8.34375 0 15.4375 -2.265625q7.09375 -2.28125 12.75 -6.640625q5.671875 -4.375 9.375 -10.625q3.71875 -6.25 5.15625 -14.1875l40.234375 0q-1.5625 13.546875 -8.015625 25.921875q-6.4375 12.359375 -17.125 22.125q-10.671875 9.765625 -25.390625 15.375q-14.703125 5.59375 -33.0625 5.59375z" fill-rule="nonzero"/></g></svg>